<svg width="601" height="48" viewBox="0 0 601 48" fill="none" xmlns="http://www.w3.org/2000/svg">
<path d="M38.1498 23.5965C37.5976 23.5965 37.1498 24.0442 37.1498 24.5965V38.9104C37.1498 39.2118 37.0149 39.4985 36.7759 39.6821C33.3684 42.3003 29.1664 43.5801 24.1114 43.5801C20.1802 43.5801 16.6421 42.7283 13.4971 40.9593C10.3522 39.1902 7.8624 36.766 6.02783 33.6866C4.19327 30.6071 3.34152 27.2001 3.34152 23.3999C3.34152 19.5998 4.19327 16.1927 6.02783 13.1133C7.79688 10.0338 10.2866 7.6096 13.4316 5.84056C16.5766 4.13704 20.1802 3.21976 24.1114 3.21976C26.9942 3.21976 29.6151 3.6784 31.9738 4.53016C34.0381 5.27562 35.952 6.42259 37.7152 7.97106C38.1341 8.33894 38.7727 8.32591 39.1548 7.91994L39.892 7.13671C40.2624 6.74312 40.2548 6.12432 39.8548 5.76077C37.9741 4.05117 35.7838 2.70844 33.2841 1.77832C30.4668 0.729999 27.3874 0.14032 24.0458 0.14032C19.4594 0.14032 15.3317 1.18864 11.6626 3.15424C7.99346 5.18536 5.17609 7.9372 3.07944 11.4753C0.982812 15.0134 0 19.0101 0 23.3999C0 27.8553 0.982812 31.7865 3.07944 35.3246C5.17609 38.8626 7.99346 41.68 11.6626 43.6456C15.3317 45.6767 19.3939 46.6595 23.9803 46.6595C27.1253 46.6595 30.1392 46.2009 33.0221 45.1526C35.7606 44.219 38.0853 42.8715 40.0523 41.054C40.2513 40.8701 40.3603 40.6098 40.3603 40.3389V24.5965C40.3603 24.0442 39.9126 23.5965 39.3603 23.5965H38.1498Z" fill="#32B6A6"/>
<path d="M188.168 45.3337C188.169 45.8853 188.616 46.332 189.168 46.332H190.444C190.997 46.332 191.445 45.8834 191.444 45.3306L191.382 1.46659C191.381 0.914865 190.933 0.468018 190.382 0.468018H189.205C188.848 0.468018 188.518 0.658274 188.339 0.967233L168.986 34.4183C168.601 35.0839 167.64 35.0839 167.255 34.4183L147.902 0.967235C147.723 0.658275 147.393 0.468018 147.036 0.468018H145.795C145.243 0.468018 144.795 0.915733 144.795 1.46802V45.332C144.795 45.8843 145.243 46.332 145.795 46.332H147.071C147.624 46.332 148.071 45.8843 148.071 45.332V10.9264C148.071 9.90488 149.423 9.54069 149.936 10.4238L166.98 39.7413C167.159 40.0492 167.488 40.2387 167.844 40.2387H168.33C168.687 40.2387 169.017 40.0485 169.196 39.7398L186.245 10.2963C186.757 9.41226 188.109 9.77419 188.11 10.7957L188.168 45.3337Z" fill="#4BBFB1"/>
<path d="M255.253 22.5655C255.253 22.0132 254.805 21.5655 254.253 21.5655H226.572C226.02 21.5655 225.572 22.0132 225.572 22.5655V23.5139C225.572 24.0661 226.02 24.5139 226.572 24.5139H254.253C254.805 24.5139 255.253 24.0661 255.253 23.5139V22.5655ZM255.253 1.46802C255.253 0.915732 254.805 0.468018 254.253 0.468018H226.572C226.02 0.468018 225.572 0.915733 225.572 1.46802V2.48194C225.572 3.03422 226.02 3.48194 226.572 3.48194H254.253C254.805 3.48194 255.253 3.03422 255.253 2.48194V1.46802ZM226.572 43.3181C226.02 43.3181 225.572 43.7658 225.572 44.3181V45.332C225.572 45.8843 226.02 46.332 226.572 46.332H254.253C254.805 46.332 255.253 45.8843 255.253 45.332V44.3181C255.253 43.7658 254.805 43.3181 254.253 43.3181H226.572Z" fill="#57C3B6"/>
<path d="M311.764 43.6457C315.368 45.6768 319.43 46.6596 323.951 46.6596C327.227 46.6596 330.241 46.1354 333.059 45.0216C335.564 44.0893 337.759 42.6905 339.596 40.9176C339.981 40.547 339.974 39.9373 339.602 39.5541L338.87 38.7991C338.483 38.4007 337.848 38.3952 337.434 38.7639C333.822 41.9747 329.353 43.5801 324.082 43.5801C320.217 43.5801 316.744 42.7284 313.599 40.9593C310.454 39.2558 307.964 36.8316 306.195 33.7521C304.361 30.6727 303.509 27.2001 303.509 23.4C303.509 19.5998 304.361 16.1928 306.195 13.1133C307.964 10.0339 310.454 7.60966 313.599 5.84062C316.744 4.1371 320.217 3.21982 324.082 3.21982C329.408 3.21982 333.877 4.8215 337.433 7.97142C337.848 8.33924 338.483 8.33376 338.87 7.93549L339.602 7.18031C339.974 6.79712 339.981 6.18731 339.595 5.81791C337.759 4.057 335.571 2.71049 333.124 1.77838C330.307 0.73006 327.227 0.140381 323.951 0.140381C319.43 0.140381 315.368 1.1887 311.764 3.1543C308.161 5.18542 305.344 7.93726 303.247 11.4753C301.15 15.0134 300.167 19.0101 300.167 23.4C300.167 27.8553 301.15 31.7865 303.247 35.3246C305.344 38.8627 308.161 41.6801 311.764 43.6457Z" fill="#63C7BB"/>
<path d="M394.72 31.4299C394.319 30.8684 394.595 30.0787 395.242 29.8407C398.017 28.8212 400.24 27.2563 401.827 25.1035C403.661 22.6138 404.644 19.5999 404.644 15.9307C404.644 11.1478 403.006 7.34762 399.73 4.59578C396.454 1.84394 391.933 0.468018 386.167 0.468018H370.722C370.17 0.468018 369.722 0.915733 369.722 1.46802V2.48194C369.722 3.03422 370.17 3.48194 370.722 3.48194H386.167C391.016 3.48194 394.75 4.59578 397.371 6.75794C399.926 8.9201 401.237 11.9995 401.237 15.9307C401.237 19.9275 399.926 23.0069 397.371 25.1691C394.75 27.3312 391.016 28.3795 386.167 28.3795H370.722C370.17 28.3795 369.722 28.8273 369.722 29.3795V45.332C369.722 45.8843 370.17 46.332 370.722 46.332H372.063C372.616 46.332 373.063 45.8843 373.063 45.332V32.3279C373.063 31.7757 373.511 31.3279 374.063 31.3279H386.167C387.313 31.3279 388.608 31.2779 390.01 31.0904C390.386 31.04 390.762 31.1958 390.983 31.5048L401.265 45.9129C401.453 46.1759 401.756 46.332 402.079 46.332H403.421C404.235 46.332 404.708 45.4127 404.235 44.7508L394.72 31.4299Z" fill="#70CCC1"/>
<path d="M436.142 0.468018C435.59 0.468018 435.142 0.915733 435.142 1.46802V45.332C435.142 45.8843 435.59 46.332 436.142 46.332H437.484C438.036 46.332 438.484 45.8843 438.484 45.332V1.46802C438.484 0.915731 438.036 0.468018 437.484 0.468018H436.142Z" fill="#7CD0C6"/>
<path d="M480.445 3.48194C480.998 3.48194 481.445 3.92965 481.445 4.48194V45.332C481.445 45.8843 481.893 46.332 482.445 46.332H483.787C484.339 46.332 484.787 45.8843 484.787 45.332V4.48194C484.787 3.92965 485.235 3.48194 485.787 3.48194H500.298C500.85 3.48194 501.298 3.03422 501.298 2.48194V1.46802C501.298 0.915732 500.85 0.468018 500.298 0.468018H465.934C465.382 0.468018 464.934 0.915733 464.934 1.46802V2.48194C464.934 3.03422 465.382 3.48194 465.934 3.48194H480.445Z" fill="#88D4CB"/>
<path d="M528.721 0.468018C528.168 0.468018 527.721 0.915733 527.721 1.46802V45.332C527.721 45.8843 528.168 46.332 528.721 46.332H530.062C530.614 46.332 531.062 45.8843 531.062 45.332V1.46802C531.062 0.915731 530.614 0.468018 530.062 0.468018H528.721Z" fill="#95D9D1"/>
<path d="M572.451 43.6457C576.055 45.6768 580.117 46.6596 584.638 46.6596C587.914 46.6596 590.928 46.1354 593.745 45.0216C596.251 44.0893 598.445 42.6905 600.283 40.9176C600.667 40.547 600.66 39.9373 600.289 39.5541L599.556 38.7991C599.17 38.4007 598.535 38.3952 598.12 38.7639C594.508 41.9747 590.04 43.5801 584.769 43.5801C580.903 43.5801 577.431 42.7284 574.286 40.9593C571.141 39.2558 568.651 36.8316 566.882 33.7521C565.047 30.6727 564.196 27.2001 564.196 23.4C564.196 19.5998 565.047 16.1928 566.882 13.1133C568.651 10.0339 571.141 7.60966 574.286 5.84062C577.431 4.1371 580.903 3.21982 584.769 3.21982C590.095 3.21982 594.563 4.8215 598.12 7.97142C598.535 8.33924 599.17 8.33376 599.556 7.93549L600.289 7.18031C600.66 6.79712 600.667 6.18731 600.282 5.81791C598.445 4.057 596.257 2.7105 593.811 1.77838C590.993 0.73006 587.914 0.140381 584.638 0.140381C580.117 0.140381 576.055 1.1887 572.451 3.1543C568.847 5.18542 566.03 7.93726 563.933 11.4753C561.837 15.0134 560.854 19.0101 560.854 23.4C560.854 27.8553 561.837 31.7865 563.933 35.3246C566.03 38.8627 568.847 41.6801 572.451 43.6457Z" fill="#A1DDD6"/>
<path d="M68.5751 3.90015L114.902 3.90015L91.9635 44.3799L68.5751 3.90015ZM91.5327 45.1402C91.5329 45.1398 91.533 45.1395 91.5332 45.1392L91.5327 45.1402L91.9677 45.3867L91.5327 45.1402Z" stroke="#3EBAAB" stroke-width="3"/>
</svg>
